<?xml version="1.0" encoding="UTF-8"?><svg id="Layer_2" xmlns="http://www.w3.org/2000/svg" viewBox="0 0 1000 431.2212"><g id="Components"><g id="_688f57d6-9176-486a-9784-60450206677e_1"><polygon points="642.4729 68.3411 639.7623 69.7622 639.7886 69.7096 642.4729 68.3411" style="fill:#5000ad;"/><path d="M868.3408,182.5896c35.0528-40.4734,46.5004-93.3157,22.6845-141.7365l-26.6055,13.1052c-2.1054-3.5002-4.4472-6.8681-6.9998-10.1575-19.1843-24.6325-48.079-39.9478-81.3155-43.1846-28.842-2.7896-57.2368,4.0258-81.3952,17.7362l.1844-.1837-208.4209,110.0792,42.316,14.6574-96.237,66.0272-34.6056,23.7356-38.8685,26.6846-14.1312,9.6847-18.9736-10.2102-36.474-19.5801-36.2106-19.4734L36.4464,103.2208l115.6841,138.6063,14.5791,17.4728,17.5261,20.9999.6316.7633,33.6843,40.3693,26.1314,31.3155,65.5004,78.4732h26.4475l161.8158-93.8155,41.6575-24.1584,20.6845-12.0002,9.4206-5.4726,70.2637-40.7381,13.1316-7.6043,19.7368-11.4476c4.9471,2.1047,10.0528,3.8947,15.289,5.3942,3.2111.9213,6.4742,1.7103,9.79,2.3951,10.8945,2.2628,22.2894,3.2895,33.9208,3.053,3.0267-.0797,6.0528-.2107,9.1315-.4741,2-.1311,4.0001-.3161,6.0001-.5525l10.5263,21.3687,18.3947-9.0525,50.7896-25,32.8684-16.184,12.6054-6.2115-10.5-21.3687c2.1311-2.2101,4.2101-4.4729,6.1838-6.7627ZM696.5519,136.5897c3.4996-13.7901,8.4999-28.3152,15.7104-42.1849,8.7627,6.2641,17.4471,13.632,25.0263,22.132l-40.7368,20.0529ZM871.3412,79.642s16.5527,47.6061-32.8421,95.1056c0,0,25.158-35.4466,7.1842-82.4733l25.6579-12.6323ZM772.6043,18.7739c28.1578,2.71,52.6052,15.7111,68.8682,36.553,1.8683,2.3951,3.5792,4.8674,5.1578,7.3949l-34.8421,17.131c-23-28.869-54.5262-48.5005-74.4211-58.9471,11.3949-2.4735,23.2897-3.2895,35.2372-2.1317ZM711.6308,29.669c9.526,4.1581,52.9207,24.3421,82.0788,59.1052l-38.2106,18.7885c-24.4475-29.3149-60.1845-46.7105-77.7896-53.9731,9.7367-9.8157,21.2897-17.9469,33.9214-23.9206ZM551.2882,283.669l-28.8683,16.7365-68.4474,39.6844-122.7102,71.158h-11.7367l-50.079-60.0008-17.1843-20.6042-22.2367-26.6589-11.474-13.7361-37.1055-44.4734-17.21-20.6055-46.2634-55.4482,97.3948,52.3425,36.1579,19.4734h.0527l36.4213,19.6058h.0527l18.6575,9.9995,20.6318,11.1058,18.8682,10.1318,28.1051-19.2897,62.2636-42.7375.0527-.0257,34.605-23.7369,101.4738-69.6058-36.5266-12.658,103.5792-54.5526.0263-.0527,2.6843-1.3685,1.4732-.762c.027,0,.027-.027.027-.027l5.1051-2.5789s7.3949.8943,15.8679,3.9217c6.6059,2.5776,18.4737,7.684,31.6843,15.4207-11.4997,21.1053-18.2103,43.3684-22.105,63.1052l-22.6575,11.1572c-4.2898-11.4733-6.2635-23.999-5.5002-37.0259.079-1.4738.2101-2.9477.3681-4.4215.079-.8159.1844-1.6306.2898-2.4465l-124.053,84.8941,107.1848-44.4991c1.0524,4.1838,2.3682,8.2892,3.9204,12.2623l-21.8943,10.764c3.4205,6.9464,7.3422,13.3673,11.7631,19.2627,5.7103,7.711,12.2366,14.5264,19.3944,20.4474,3.0004,2.4992,6.1318,4.8417,9.3686,7.0261l-27.1844,15.7638-21.2627,12.315-34.0531,19.7625-18.9209,10.9748Z" style="fill:#5000ad;"/><path d="M838.4991,174.7476s25.158-35.4466,7.1842-82.4733l25.6579-12.6323s16.5527,47.6061-32.8421,95.1056Z" style="fill:#fff;"/><path d="M846.6303,62.7217l-34.8421,17.131c-23-28.869-54.5262-48.5005-74.4211-58.9471,11.3949-2.4735,23.2897-3.2895,35.2372-2.1317,28.1578,2.71,52.6052,15.7111,68.8682,36.553,1.8683,2.3951,3.5792,4.8674,5.1578,7.3949Z" style="fill:#fff;"/><path d="M793.7096,88.7741l-38.2106,18.7885c-24.4475-29.3149-60.1845-46.7105-77.7896-53.9731,9.7367-9.8157,21.2897-17.9469,33.9214-23.9206,9.526,4.1581,52.9207,24.3421,82.0788,59.1052Z" style="fill:#fff;"/><path d="M737.2887,116.5368l-40.7368,20.0529c3.4996-13.7901,8.4999-28.3152,15.7104-42.1849,8.7627,6.2641,17.4471,13.632,25.0263,22.132Z" style="fill:#fff;"/><path d="M646.3675,121.5509c-.7633,13.0268,1.2104,25.5538,5.5002,37.0271l22.6582-11.1585c3.8947-19.7368,10.6047-41.9999,22.105-63.1052-13.2106-7.7367-25.079-12.8418-31.6843-15.4207-8.4736-3.0261-15.8685-3.9217-15.8685-3.9217l-5.1051,2.5802s0,.0257-.0263.0257l-1.4738.7633-2.7106,1.4212-103.5786,54.5526,36.526,12.658-101.4732,69.6058-34.6056,23.7356-62.3156,42.7632-28.1057,19.2897-18.8682-10.1306-20.6312-11.1058-18.6581-10.0008-36.474-19.6045-36.2106-19.4734-97.3948-52.3425,46.2634,55.4469,17.2106,20.6055,37.1055,44.4734,11.4733,13.7374,22.2367,26.6576,17.1843,20.6055,50.079,59.9995h11.7367l122.7109-71.158,68.4474-39.6831,28.8683-16.7378,18.9209-10.9735,34.0525-19.7625,21.2634-12.3163,27.1844-15.7638c-3.2368-2.1831-6.3689-4.5256-9.3686-7.0261-7.1578-5.9211-13.6841-12.7364-19.395-20.4461-4.4209-5.8954-8.3419-12.3163-11.7631-19.264l21.8949-10.7627c-1.5529-3.9744-2.8687-8.0798-3.921-12.2636l-107.1842,44.5004,124.0523-84.8954h.0263l-.2371,2.3951-.4472,4.4729ZM328.7361,384.4993l55.2632-44.422,27.947,1.948-83.2102,42.474Z" style="fill:#3dea73;"/><polygon points="642.4729 68.3411 639.7623 69.7622 639.7886 69.7096 642.4729 68.3411" style="fill:#5000ad;"/><path d="M647.0518,114.6828l-.2371,2.3951-.0784.0527c.0784-.8159.1837-1.6319.2891-2.4478h.0263Z" style="fill:#5000ad;"/><path d="M647.0518,114.6828l-.2371,2.3951-.4472,4.4729c.079-1.4726.2107-2.9464.3688-4.4202.0784-.8159.1837-1.6319.2891-2.4478h.0263Z" style="fill:#5000ad;"/><polygon points="411.9463 342.0253 328.7361 384.4993 383.9993 340.0773 411.9463 342.0253" style="fill:#5000ad;"/><path d="M549.7896,359.8154l-13.3156,30.1835-14.1582-28.5259-18.2103,1.1051,21.2894,40.8422,21.3157-1.3158,19.7632-43.29-16.6841,1.001Z" style="fill:#5000ad;"/><path d="M611.9211,355.2628l-2.5526.158c-27.2631,1.6576-30.7103,14.8155-30.7103,22.7359v1.7103c0,7.869,3.4472,20.8959,30.7103,19.264l2.5526-.158c27.2371-1.6576,30.6843-15.1046,30.6843-22.9736v-1.6846c0-7.9474-3.4999-20.6839-30.6843-19.052ZM625.974,376.4992c0,4.5269-2.895,10.4209-15.3423,11.1585-12.4473.762-15.3423-4.9997-15.3423-9.4213v-.6849c0-4.4729,2.6579-10.1049,15.3423-10.8681,12.4473-.7633,15.3423,4.5526,15.3423,9.0268v.789Z" style="fill:#5000ad;"/><path d="M677.4212,382.1569v-30.0524l-16.0789.974v42.1053l45.2894-2.7369v-12.0528l-29.2105,1.763Z" style="fill:#5000ad;"/><path d="M741.6581,378.2622v-30.0524l-16.0792.974v42.1053l45.2897-2.7369v-12.0528l-29.2105,1.763Z" style="fill:#5000ad;"/><path d="M805.6843,375.9197v-5.7617l30.1054-1.8169v-10.2359l-30.1054,1.8156v-5.2632l30.737-1.8683v-10.2899l-46.5788,2.8153v42.1053l47.026-2.8423v-10.5263l-31.1841,1.8683Z" style="fill:#5000ad;"/><path d="M896.4214,338.8682l-12.5263,15.2896-12.2636-13.7901-19.263,1.1577,23.0527,24.8689v15.8422l16.0789-.974v-15.7368l22.5001-27.7369-17.5788,1.0794Z" style="fill:#5000ad;"/><path d="M999.0266,174.6836l-130.6846,7.8947-11.2106.6836v6.8424c-12.9998-4.8687-29.2892-6.7627-48.5788-5.578l-4.6579.2621c-19.9473,1.2104-36.6841,5.4739-49.8946,12.658v-7.9474l-31.9998,1.921-13.0265.7902-32.1842,1.9467v3.1314c-7.4209-1.6319-15.9735-2.1574-25.5529-1.5779l-27.2891,1.6576-152.7106,9.2105-38.6841,2.3412-179.2635,10.8424-37.9208,2.2898-51.1317,3.1057-3.2631.1837-8.8421,16.4731-6.0528,11.2896-14.6314-25.9727L0,235.0788l50.2371,50.5525v78.8677l194.4471-11.7624,24.7636-1.5008,108.8681-6.5789,23.4475-1.4212,52.2104-3.1571,44.4737-2.6843,501.5525-30.3428v-65.5518l-.9734-66.8161ZM218.5528,332.6837l-33.6843,2.0264v-55.605l-31.2892,57.5003-17.3687,1.0524-31.1578-53.7379v55.6062l-33.1842,2.0264v-65.7638l-21.9476-22.078,68.6845-4.1581,27.3158,48.4465,27.7893-51.763,44.8422-2.71v89.1576ZM329.6053,325.9467l-99.5789,6.0264v-89.1576l98.6318-5.948v21.7902l-65.0792,3.9474v11.1315l63.7634-3.842v21.6835l-63.7634,3.869v12.2109l66.0262-4.0013v22.29ZM408.3422,321.1834l-34.0265,2.0791v-64.8425l-38.4734,2.3168v-24.3164l110.9735-6.71v24.3421l-38.4737,2.3155v64.8155ZM540.1052,313.236l-10.9735.6579-6.7107-13.4997-.2368-.4741-50.9473,3.0787-6.816,14.8168-34.526,2.0791,44.1053-91.8161,45.7892-2.7896,31.4999,58.3689,9.5003,17.5781,5.605,10.3953-26.2894,1.6049ZM690.7631,304.1308l-34.7367,2.0791c-.8423-.8943-1.0787-2.0791-1.0787-4.6053v-10.4209c0-10.1845-4.6843-15.1843-18.1056-14.3683l-32.5786,1.9737v30.5523l-34.0528,2.0791v-66.2366l-21.5265-21.6321,94.6578-5.736,7.8947-.4741c5.2895-.3161,9.9738-.2364,14.0792.185,10.9998,1.1565,17.8949,4.8674,21.158,10.8154,1.5262,2.7369,2.2628,5.9737,2.2628,9.6307v1.3158c0,.7106-.0263,1.4212-.105,2.0791-1.1317,11.526-11.5263,17.0526-17.8682,18.8952,11.0262,1.8683,18.342,8.6053,18.342,20.1056v13.1836c0,6.2372.842,8.4742,1.6576,9.9738v.6052ZM732.3422,301.6046l-33.9211,2.0521v-89.1576l33.9211-2.0521v89.1576ZM870.6318,240.0259l-35.3422,2.1574c-.7366-2.3682-3.4735-13.4727-29.3685-11.8948-24.5789,1.4738-29.842,12.7107-29.842,22.6588v1.4469c0,9.5793,6.0001,21.7889,29.9737,20.3421,26.2368-1.5792,28.8683-14.3156,29.3422-16.3947l35.2369-2.1317v1.921c0,11.6314-8.3949,37.2893-62.0792,40.553l-4.6579.2621c-54.7893,3.3165-63.0525-24.1044-63.0525-40.9989v-3.4745c0-17.0256,7.4476-44.6572,63.0525-48.0263l4.6579-.2891c54.1581-3.2638,62.0792,20.8162,62.0792,32.3165v1.5522ZM978.3422,286.7364l-99.5789,6.0264v-89.1576l98.6315-5.975v21.8159l-65.0789,3.9217v11.1585l63.7631-3.869v21.7105l-63.7631,3.842v12.2109l66.0262-3.9744v22.29Z" style="fill:#5000ad;"/><polygon points="511.2632 278.2892 481.6843 280.1048 496.2897 248.5259 511.2632 278.2892" style="fill:#5000ad;"/><path d="M653.6319,246.4468v.1311c0,.2904,0,.5795-.0263.8429-.3688,3.8947-3.2368,6.9991-10.2899,7.4463l-2.8417.1593-36.2106,2.1831v-15.3153l21.263-1.2901,17.7892-1.0781c7.6846-.4741,10.3162,2.7369,10.3162,6.9207Z" style="fill:#5000ad;"/><polygon points="218.5528 243.5261 218.5528 332.6837 184.8684 334.7101 184.8684 279.1051 153.5792 336.6054 136.2106 337.6577 105.0527 283.9198 105.0527 339.5261 71.8686 341.5524 71.8686 275.7887 49.921 253.7106 118.6054 249.5525 145.9212 297.999 173.7106 246.2361 218.5528 243.5261" style="fill:#fff;"/><polygon points="329.6053 303.6567 329.6053 325.9467 230.0264 331.9731 230.0264 242.8155 328.6583 236.8675 328.6583 258.6577 263.579 262.6051 263.579 273.7366 327.3425 269.8946 327.3425 291.5781 263.579 295.4471 263.579 307.658 329.6053 303.6567" style="fill:#fff;"/><polygon points="446.8159 229.7103 446.8159 254.0524 408.3422 256.3679 408.3422 321.1834 374.3158 323.2624 374.3158 258.42 335.8424 260.7367 335.8424 236.4203 446.8159 229.7103" style="fill:#fff;"/><path d="M560.7897,301.2358l-9.5003-17.5781-31.4999-58.3689-45.7892,2.7896-44.1053,91.8161,34.526-2.0791,6.816-14.8168,50.9473-3.0787.2368.4741,6.7107,13.4997,10.9735-.6579,26.2894-1.6049-5.605-10.3953ZM481.6843,280.1048l14.6054-31.5789,14.9735,29.7633-29.5789,1.8156Z" style="fill:#fff;"/><path d="M689.1055,293.5518v-13.1836c0-11.5003-7.3159-18.2373-18.342-20.1056,6.3419-1.8426,16.7365-7.3692,17.8682-18.8952.0787-.6579.105-1.3685.105-2.0791v-1.3158c0-3.657-.7366-6.8938-2.2628-9.6307-3.2631-5.948-10.1582-9.659-21.158-10.8154-4.1054-.4215-8.7897-.5011-14.0792-.185l-7.8947.4741-94.6578,5.736,21.5265,21.6321v66.2366l34.0528-2.0791v-30.5523l32.5786-1.9737c13.4213-.8159,18.1056,4.1838,18.1056,14.3683v10.4209c0,2.5262.2364,3.7109,1.0787,4.6053l34.7367-2.0791v-.6052c-.8156-1.4995-1.6576-3.7366-1.6576-9.9738ZM653.6319,246.5779c0,.2904,0,.5795-.0263.8429-.3688,3.8947-3.2368,6.9991-10.2899,7.4463l-2.8417.1593-36.2106,2.1831v-15.3153l21.263-1.2901,17.7892-1.0781c7.6846-.4741,10.3162,2.7369,10.3162,6.9207v.1311Z" style="fill:#fff;"/><polygon points="732.3422 212.447 732.3422 301.6046 698.4211 303.6567 698.4211 214.4991 732.3422 212.447" style="fill:#fff;"/><path d="M776.079,252.9474v1.4469c0,9.5793,6.0001,21.7889,29.9737,20.3421,26.2368-1.5792,28.8683-14.3156,29.3422-16.3947l35.2369-2.1317v1.921c0,11.6314-8.3949,37.2893-62.0792,40.553l-4.6579.2621c-54.7893,3.3165-63.0525-24.1044-63.0525-40.9989v-3.4745c0-17.0256,7.4476-44.6572,63.0525-48.0263l4.6579-.2891c54.1581-3.2638,62.0792,20.8162,62.0792,32.3165v1.5522l-35.3422,2.1574c-.7366-2.3682-3.4735-13.4727-29.3685-11.8948-24.5789,1.4738-29.842,12.7107-29.842,22.6588Z" style="fill:#fff;"/><polygon points="978.3422 264.4464 978.3422 286.7364 878.7633 292.7628 878.7633 203.6053 977.3948 197.6302 977.3948 219.4461 912.3159 223.3678 912.3159 234.5263 976.079 230.6573 976.079 252.3679 912.3159 256.2099 912.3159 268.4207 978.3422 264.4464" style="fill:#fff;"/></g></g></svg>